#format: frame checksums
#version: 2
#hash: MD5
#extradata 0,                              16, c9a1741fb293b9ad21876492b5425a3b
#tb 0: 1/25
#media_type 0: video
#codec_id 0: utvideo
#dimensions 0: 352x288
#sar 0: 0/1
#stream#, dts,        pts, duration,     size, hash
0,          0,          0,        1,   303768, c37d23b5bc1dcceacafcebd0a5054590
0,          1,          1,        1,   303764, a6a8b445323c00ab56ad1077a90b34bf
0,          2,          2,        1,   303672, 029048769e006f2a2357f373cfc0b6bf
0,          3,          3,        1,   303672, e13433d7e8f75a26eeca86523d47d0cf
0,          4,          4,        1,   303724, 4c3d437c158255e398071bdd2e699d9e
0,          5,          5,        1,   303672, 11e335df4fdfcfb7563305a33740058e
0,          6,          6,        1,   303676, 594a7a6101fbf884bb3bc309479bdf18
0,          7,          7,        1,   303764, 09f91a05f8f507f6338d15591df34002
0,          8,          8,        1,   303772, 1e177889c188fdd783815103c1987e5e
0,          9,          9,        1,   303700, f6da8873c69fb6365764327305a36840
0,         10,         10,        1,   303684, 6810c80719058078b7d40a787fabee70
0,         11,         11,        1,   303696, f8dcad694c276074f5022276e4067694
0,         12,         12,        1,   303720, d1f764aaf14e78b64b182503342df764
0,         13,         13,        1,   303676, 43066ddba20726f57d76230891f76730
0,         14,         14,        1,   303548, 6512bff050521cd6343e5b2f4b18be6c
0,         15,         15,        1,   303604, 76c91368e8db8c18591c7cb569774e12
0,         16,         16,        1,   303748, 365805842ee3cefee8d5feb169075ecf
0,         17,         17,        1,   303740, e6bbc34d7057d812cd994473b93ccadb
0,         18,         18,        1,   303788, 48bcbbc3bf805586c34ff23ebeaa28ea
0,         19,         19,        1,   303808, 29f268867c4522551e6f73dd4afb36e1
0,         20,         20,        1,   303808, effd1cf0a61501f427e47c76c469ff32
0,         21,         21,        1,   303832, 0ea84576612a4b0b8f9e14b3ecf10861
0,         22,         22,        1,   303800, 4b4d24ce4f176de4c34ec85656ea1e49
0,         23,         23,        1,   303716, 58845ad1c9a07d62f83414662eaf1181
0,         24,         24,        1,   303780, 8db647c5324b3c061aa2cdae7527ec8d
0,         25,         25,        1,   303824, 7a2ddbe9d1af3d34d7538ba10a0aae3c
0,         26,         26,        1,   303796, a8444e8ec7b64c3481766ebcafd2e7b7
0,         27,         27,        1,   303816, bf78e04e04429aab3527baacd51da1b0
0,         28,         28,        1,   303872, 02d9693cc78af1b9d4a17b5361daa325
0,         29,         29,        1,   303900, 065cde35c0ac49675a9ee8e047bb1471
0,         30,         30,        1,   303876, 0888dd5201864a9f34f784b7959563ba
0,         31,         31,        1,   303828, 6837a1a3f4ae04c9601fa9f4c27098b2
0,         32,         32,        1,   303720, 8c90fc8481d745b020c325134bf0047d
0,         33,         33,        1,   303704, d37bd88a42e4b84a98f0e51208a3877d
0,         34,         34,        1,   303640, 2444c069427bf6a847113fd16e7a863f
0,         35,         35,        1,   303780, 7a9aa1d7d43bcb22a754fa5e7ee911a0
0,         36,         36,        1,   303828, 4a0ab1bbea88697950bbafe566a03b52
0,         37,         37,        1,   303860, 6d2073d28e226286e1e78df92bc27154
0,         38,         38,        1,   303884, 74c43f24d636de3fd6afd1d0ab098e57
0,         39,         39,        1,   303876, 329a1d1558ffc42b7cdb1f141e042431
0,         40,         40,        1,   303912, 6b1f3c35f28ab1182354b33ea9e37331
0,         41,         41,        1,   303856, ec00db5b019a3f72c3fc934d3811cad7
0,         42,         42,        1,   303880, 6d291f829145c07f0002631b0e22a1f9
0,         43,         43,        1,   303856, c438ae4db7f897c9e2a1bc6526bb43e1
0,         44,         44,        1,   303828, d9e5870cf4598577e4ba0ac468ef25db
0,         45,         45,        1,   303936, 6c90dbca317295010024cc4ec70d3f87
0,         46,         46,        1,   303940, 025d9173ff307f89c3edf43074a261e9
0,         47,         47,        1,   303948, 48e7ab65fb9c7a35e4933a7658935726
0,         48,         48,        1,   303944, 925eb3c42b865d0861ae0348136fc18c
0,         49,         49,        1,   303924, 83ae105d9d301ea900f004d274adf894
